<svg width="60" height="60" xmlns="http://www.w3.org/2000/svg">
 <title/>
 <desc/>

 <g>
  <title>background</title>
  <rect fill="none" id="canvas_background" height="402" width="582" y="-1" x="-1"/>
 </g>
 <g>
  <title>Layer 1</title>
  <path id="Shape" fill="#e2b82e" d="m32.49536,2.14435l7.44369,15.80374c0.27361,0.59697 0.8269,1.01818 1.47517,1.123l16.64461,2.53425c0.75246,0.14591 1.36371,0.69383 1.59072,1.42592c0.22701,0.73209 0.03301,1.5297 -0.50489,2.07574l-12.04416,12.30145c-0.46506,0.48224 -0.67409,1.15633 -0.56346,1.81708l2.84324,17.37c0.15511,0.7467 -0.13244,1.51611 -0.73925,1.97806c-0.60682,0.46195 -1.42501,0.53432 -2.10348,0.18605l-14.88739,-8.201c-0.56714,-0.31441 -1.25627,-0.31441 -1.82341,0l-14.88739,8.201c-0.67847,0.34827 -1.49666,0.27591 -2.10348,-0.18605c-0.60681,-0.46195 -0.89435,-1.23136 -0.73924,-1.97806l2.84324,-17.37c0.11062,-0.66075 -0.09841,-1.33484 -0.56347,-1.81708l-12.04415,-12.30145c-0.53787,-0.54604 -0.73186,-1.34364 -0.50485,-2.07571c0.22701,-0.73207 0.83823,-1.27998 1.59067,-1.4259l16.64461,-2.53429c0.64827,-0.10482 1.20156,-0.52603 1.47517,-1.123l7.4437,-15.80374c0.30744,-0.69563 0.99636,-1.14436 1.7569,-1.14436c0.76054,0 1.44946,0.44872 1.7569,1.14435z"/>
  <path stroke="null" id="Shape" fill="#824916" d="m37.725852,14.65696c-4.594066,2.479984 -8.836237,5.573517 -12.612078,9.197134c-4.024313,3.88951 -7.438179,8.37531 -10.12412,13.303001l-11.521108,-11.873188c-0.51468,-0.527837 -0.699805,-1.298816 -0.481691,-2.006002c0.218114,-0.707186 0.804062,-1.235766 1.524566,-1.375303l15.92312,-2.453853c0.619477,-0.103879 1.148889,-0.508351 1.416236,-1.082019l7.119342,-15.273803c0.297401,-0.670081 0.956875,-1.101319 1.684162,-1.101319c0.727287,0 1.386761,0.431238 1.684162,1.101319l5.387409,11.564034z"/>
 </g>
</svg>